<svg id="computer_access" data-name="computer access" xmlns="http://www.w3.org/2000/svg" viewBox="0 0 60 60"><defs><style>.cls-1{fill:#e18026;}</style></defs><title>build-relationships-g2m</title><path class="cls-1" d="M30.22,18.69a6.13,6.13,0,1,1,6.13-6.13A6.14,6.14,0,0,1,30.22,18.69Zm0-10.76a4.63,4.63,0,1,0,4.63,4.63A4.63,4.63,0,0,0,30.22,7.93Z"/><path class="cls-1" d="M45.29,18.69a4,4,0,1,1,4-4A4,4,0,0,1,45.29,18.69Zm0-6.46a2.48,2.48,0,1,0,2.48,2.48A2.48,2.48,0,0,0,45.29,12.23Z"/><path class="cls-1" d="M15.16,18.69a4,4,0,1,1,4-4A4,4,0,0,1,15.16,18.69Zm0-6.46a2.48,2.48,0,1,0,2.48,2.48A2.48,2.48,0,0,0,15.16,12.23Z"/><path class="cls-1" d="M30.22,53.12c-8.82,0-25.5-1.06-25.5-5.05,0-2.79,7.93-4.05,14.58-4.62a0.75,0.75,0,1,1,.13,1.49c-10.86.92-13.21,2.73-13.21,3.12,0,1,7.38,3.55,24,3.55,15.53,0,24-2.35,24-3.55,0-.54-3.15-2.27-13.3-3.13a0.75,0.75,0,0,1-.68-0.81A0.77,0.77,0,0,1,41,43.44c6.69,0.56,14.67,1.83,14.67,4.63C55.72,52.06,39,53.12,30.22,53.12Z"/><path class="cls-1" d="M35.6,42.36H24.84a0.75,0.75,0,0,1-.75-0.75v-14a6.13,6.13,0,0,1,12.26,0v14A0.75,0.75,0,0,1,35.6,42.36Zm-10-1.5h9.26V27.62a4.63,4.63,0,0,0-9.26,0V40.86Z"/><path class="cls-1" d="M48.51,38.06H42.06a0.75,0.75,0,0,1-.75-0.75V25.47a4,4,0,1,1,8,0V37.31A0.75,0.75,0,0,1,48.51,38.06Zm-5.71-1.5h5V25.47a2.48,2.48,0,1,0-5,0V36.56Z"/><path class="cls-1" d="M18.39,38.06H11.93a0.75,0.75,0,0,1-.75-0.75V25.47a4,4,0,0,1,8,0V37.31A0.75,0.75,0,0,1,18.39,38.06Zm-5.71-1.5h5V25.47a2.48,2.48,0,0,0-5,0V36.56Z"/></svg>