<svg id="computer_access" data-name="computer access" xmlns="http://www.w3.org/2000/svg" viewBox="0 0 60 60"><defs><style>.cls-1{fill:#e18026;}</style></defs><title>expenses-cut-g2m</title><path class="cls-1" d="M54.61,42.14l-21-12.48,21-12.46a0.75,0.75,0,0,0,.26-1,5.54,5.54,0,0,0-7.29-1.88L23,28.78l-7.28-4.29a8.27,8.27,0,1,0-2.91.54c0.27,0,.54,0,0.8,0l7.91,4.66-8,4.69c-0.25,0-.5,0-0.75,0a8.33,8.33,0,1,0,2.88.53L23,30.52,47.58,45a5.08,5.08,0,0,0,2.58.68,5.76,5.76,0,0,0,1.43-.18,5.33,5.33,0,0,0,3.27-2.38A0.75,0.75,0,0,0,54.61,42.14ZM6,16.74a6.79,6.79,0,1,1,6.79,6.79A6.8,6.8,0,0,1,6,16.74ZM19.55,42.6a6.79,6.79,0,1,1-6.79-6.79A6.8,6.8,0,0,1,19.55,42.6Zm28.79-27a4.07,4.07,0,0,1,4.78.75L32.18,28.78l-3.11-1.85Zm2.88,28.51a3.82,3.82,0,0,1-2.88-.33L24.43,29.65l3.16-1.86,4.07,2.43a0.73,0.73,0,0,0,.24.14L53.13,43A4,4,0,0,1,51.22,44.09Z"/></svg>