<svg id="computer_access" data-name="computer access" xmlns="http://www.w3.org/2000/svg" viewBox="0 0 60 60"><defs><style>.cls-1{fill:#e18026;}</style></defs><title>productivity-g2m</title><path class="cls-1" d="M18.16,20.82A8.18,8.18,0,1,0,10,12.63,8.19,8.19,0,0,0,18.16,20.82ZM18.16,6a6.68,6.68,0,1,1-6.68,6.68A6.69,6.69,0,0,1,18.16,6Z"/><path class="cls-1" d="M29.84,23.56H6.48a0.75,0.75,0,0,0-.75.75c0,7.51,2.7,13.44,7.43,16.35V54a0.75,0.75,0,0,0,.75.75h8.49A0.75,0.75,0,0,0,23.16,54V40.67c4.73-2.91,7.43-8.84,7.43-16.35A0.75,0.75,0,0,0,29.84,23.56Zm-11.31,1.5,1,11.71-1.35,1.35-1.35-1.35,1-11.71h0.74ZM22,39.59a0.75,0.75,0,0,0-.38.65V53.29h-7V40.24a0.75,0.75,0,0,0-.38-0.65c-4.32-2.46-6.87-7.73-7-14.52h9L15.29,37a0.75,0.75,0,0,0,.22.59l2.12,2.12a0.75,0.75,0,0,0,1.06,0l2.12-2.12A0.75,0.75,0,0,0,21,37L20,25.06h9C28.9,31.86,26.36,37.13,22,39.59Z"/><path class="cls-1" d="M54.19,6.58H31.9a0.75,0.75,0,0,0,0,1.5H53.44V36.3H34a0.75,0.75,0,0,0,0,1.5H54.19a0.75,0.75,0,0,0,.75-0.75V7.33A0.75,0.75,0,0,0,54.19,6.58Z"/><path class="cls-1" d="M39.33,23.56a0.75,0.75,0,0,0-.75.75v7.74H35.12a0.75,0.75,0,0,0,0,1.5h12.7a0.75,0.75,0,0,0,.75-0.75V13.7a0.75,0.75,0,1,0-1.5,0V32.06H44.33v-12a0.75,0.75,0,0,0-1.5,0v12H40.08V24.31A0.75,0.75,0,0,0,39.33,23.56Z"/></svg>