<svg id="computer_access" data-name="computer access" xmlns="http://www.w3.org/2000/svg" viewBox="0 0 60 60"><defs><style>.cls-1{fill:#e18026;}</style></defs><title>custom-url-g2m</title><path class="cls-1" d="M16.52,54.42a8.79,8.79,0,0,1-6.26-2.59L8.36,49.92a8.85,8.85,0,0,1,0-12.51L20.76,25a8.86,8.86,0,0,1,12.51,0l1.91,1.91A0.75,0.75,0,1,1,34.12,28l-1.91-1.91a7.35,7.35,0,0,0-10.39,0L9.42,38.47a7.35,7.35,0,0,0,0,10.39l1.91,1.91a7.34,7.34,0,0,0,10.39,0l8.59-8.58a0.75,0.75,0,1,1,1.06,1.06l-8.59,8.58A8.78,8.78,0,0,1,16.52,54.42Z"/><path class="cls-1" d="M32.74,38.2h0a8.78,8.78,0,0,1-6.25-2.59,0.75,0.75,0,1,1,1.06-1.06,7.29,7.29,0,0,0,5.19,2.15h0a7.29,7.29,0,0,0,5.19-2.15l12.4-12.4a7.34,7.34,0,0,0,0-10.39L48.43,9.85A7.36,7.36,0,0,0,38,9.85l-8.58,8.58a0.75,0.75,0,1,1-1.06-1.06L37,8.79a8.86,8.86,0,0,1,12.51,0l1.91,1.91a8.84,8.84,0,0,1,0,12.51L39,35.6A8.79,8.79,0,0,1,32.74,38.2Z"/></svg>