<svg id="computer_access" data-name="computer access" xmlns="http://www.w3.org/2000/svg" viewBox="0 0 60 60"><defs><style>.cls-1{fill:#e18026;}</style></defs><title>secure-g2m</title><path class="cls-1" d="M48.71,23.32h-6V16.15a13.19,13.19,0,1,0-26.37,0v7.16h-6a0.75,0.75,0,0,0-.75.75V55.72a0.75,0.75,0,0,0,.75.75H48.71a0.75,0.75,0,0,0,.75-0.75V24.07A0.75,0.75,0,0,0,48.71,23.32ZM17.8,16.15a11.69,11.69,0,1,1,23.37,0v7.16H17.8V16.15ZM48,55H11V24.82H48V55Z"/><path class="cls-1" d="M38.77,33.81a3.94,3.94,0,0,0-3.4-2,3.88,3.88,0,0,0-1,.14l-0.52.14-0.14-.53a3.93,3.93,0,0,0-7.6,0l-0.14.53L25.42,32A4,4,0,0,0,21,33.81a3.93,3.93,0,0,0,.64,4.75L22,38.95l-0.39.38A3.93,3.93,0,0,0,21,44.08a4,4,0,0,0,4.44,1.82l0.52-.14,0.14,0.53a3.93,3.93,0,0,0,7.6,0l0.14-.53,0.52,0.14a3.85,3.85,0,0,0,1,.14,3.94,3.94,0,0,0,3.4-2,3.93,3.93,0,0,0-.64-4.75l-0.39-.38,0.39-.38A3.93,3.93,0,0,0,38.77,33.81Zm-2.06,4.28a2.78,2.78,0,0,1-2.52.08,1.17,1.17,0,0,0-.52-0.12,0.89,0.89,0,1,0,0,1.78,1.18,1.18,0,0,0,.52-0.12,2.78,2.78,0,0,1,2.52.08,2.68,2.68,0,1,1-4,2.5,1.2,1.2,0,0,0-.16-0.52,1,1,0,0,0-1.22-.33A0.9,0.9,0,0,0,31,42.68a1.14,1.14,0,0,0,.36.39,2.68,2.68,0,1,1-3,0,1.16,1.16,0,0,0,.36-0.39,0.9,0.9,0,0,0-.32-1.22,1,1,0,0,0-1.22.33,1.2,1.2,0,0,0-.16.52,2.68,2.68,0,1,1-4-2.5,2.76,2.76,0,0,1,2.52-.08,1.17,1.17,0,0,0,.51.12,0.89,0.89,0,1,0,0-1.78,1.22,1.22,0,0,0-.52.12A2.77,2.77,0,0,1,23,38.09a2.68,2.68,0,1,1,4-2.51,1.2,1.2,0,0,0,.16.52,1,1,0,0,0,1.22.33,0.9,0.9,0,0,0,.32-1.22,1.15,1.15,0,0,0-.36-0.39,2.68,2.68,0,1,1,3,0,1.15,1.15,0,0,0-.36.39,0.9,0.9,0,0,0,.32,1.22,1,1,0,0,0,1.22-.33,1.2,1.2,0,0,0,.16-0.51A2.68,2.68,0,1,1,36.71,38.09Z"/></svg>